<?xml version="1.0" encoding="utf-8"?>
<!-- Generator: Adobe Illustrator 19.0.0, SVG Export Plug-In . SVG Version: 6.00 Build 0)  -->
<svg version="1.1" id="Capa_1" xmlns="http://www.w3.org/2000/svg" xmlns:xlink="http://www.w3.org/1999/xlink" x="0px" y="0px"
	 viewBox="0 0 650 317.2" style="enable-background:new 0 0 650 317.2;" xml:space="preserve">
<style type="text/css">
	.st0{fill:#FFFFFF;}
	.st1{fill:#349B85;}
	.st2{fill:#11315B;}
	.st3{fill:#BF3A89;}
	.st4{fill:#209FCE;}
</style>
<path id="XMLID_7260_" class="st0" d="M402.3,93.3c0-3.2,1.7-5.9,5.1-8.3c3.4-2.3,6.4-3.5,9.1-3.5c4.8,0,7.2,2.8,7.2,8.3
	c0,5.5-1.4,10.3-4.3,14.2c-2.8,4-6.8,6-12,6C404,110.1,402.3,104.5,402.3,93.3z"/>
<g id="XMLID_58_">
	<path id="XMLID_68_" class="st0" d="M372.9,39c-4-3.7-8.9-5.6-14.8-5.6c-2.3,0-4.6,1-6.8,3.1c-2.2,2-3.3,4.4-3.3,7.1
		c0,5.5,3.4,11.1,10.1,16.8c5.1,4.8,8.8,10.2,10.9,16.1c2.1,6,3.2,16.2,3.2,30.8c0,14.6-1.6,28.5-4.8,41.9
		c-3.2,13.4-7.1,24.9-11.7,34.4c-4.6,9.5-9.6,17.2-15,23.2c-5.4,6-10.3,8.9-14.6,8.9c-4.4,0-7.7-1.4-10.1-4.1
		c-2.4-2.8-4.6-7-6.5-12.7c-5-14-8.1-29-9.3-45c16-21.1,24-41.6,24-61.5c0-15.4-4.5-23.2-13.6-23.2c-7.5,0-13.7,3.4-18.8,10.3
		c-5.1,6.8-8.7,15.3-10.8,25.4c-2.1,10.1-3.2,20.9-3.2,32.4c0,11.5,0.7,22.2,2.1,32.4c-4.4,5.2-9.8,10.8-16,17
		c-1.1,1.1-1.6,2.1-1.6,3.2c0,1.8,1.1,2.7,3.2,2.7c1.4,0,3-1.1,4.8-3.3c1.8-2.2,5.3-6.3,10.7-12.4c2.1,13.3,5.1,24.3,8.8,33
		c5.3,12.8,15.4,19.2,30.1,19.2c10.3,0,20.5-5.9,30.8-17.7c10.2-11.8,18.7-28.5,25.6-50.2c6.8-21.7,10.3-45,10.3-70
		c0-13.3-1.6-25.6-4.8-36.8C379.7,47.8,376.9,42.7,372.9,39z M299,128.2c0-7.3,0.7-14.7,2.1-22.4c1.4-7.6,3-13.6,4.8-17.8
		c1.8-4.3,3.4-6.4,4.8-6.4c2.1,0,3.2,4.7,3.2,14.1c0,15.6-4.9,31.6-14.6,47.9C299,140.6,299,135.5,299,128.2z"/>
	<path id="XMLID_74_" class="st0" d="M622.9,154.3c-1,0-1.9,0.7-2.7,2.1c-0.8,1.4-1.9,3.7-3.3,6.9c-5.3,12.4-11.7,23.5-19.2,33.3
		c-3.6,4.6-7.5,8.2-11.7,10.7c-4.3,2.5-9.1,3.7-14.4,3.7c-5.3,0-10-2.5-14-7.6c-4-5.1-6.4-11.1-7.1-18c13-0.4,23.9-4.1,32.9-11.3
		c9-7.2,13.5-16.1,13.5-26.8c0-5.7-2-10.2-5.9-13.4c-3.9-3.3-8.9-4.9-14.9-4.9c-13,0-23.5,5-31.7,14.9c-3.8,4.6-6.7,10.2-8.7,16.8
		c-5.8,5.1-11.7,7.7-17.9,7.7c-3,0-5.9-0.5-8.5-1.6c0.9-5.9,1.3-11.7,1.3-17.6c0-5.9-1-11.1-2.9-15.8c-2-4.7-4.8-7.1-8.5-7.1
		c-6.2,0-11,2.4-14.2,7.2c-3.3,4.8-4.9,10.4-4.9,16.8c0,6.4,1.7,12,5.1,16.9c3.4,4.9,8.3,8.3,14.6,10.3c-2.3,9.6-5.9,17.7-10.7,24.4
		c-4.8,6.7-10.4,10-16.8,10c-4.3,0-7.4-4.5-9.5-13.4c-2-9-3.1-19.8-3.1-32.4c4.6-10.7,6.9-20.5,6.9-29.6c0-3.2-1.3-4.8-4-4.8
		c-1.8,0-4.9,1.4-9.5,4.3c-4.5,2.8-7.4,5.2-8.5,7.2c-1.2,2-2.2,7.3-3.1,16c-0.6,5.8-1,11-1.2,15.4c-4.8,10.3-9.6,18.8-14.5,25.5
		c-5.3,7.4-9.5,11.1-12.5,11.3c-1.1,0-1.6-2.4-1.6-7.2c0-24.9,1.2-40.2,3.5-46.1c1.2-2.3,2.4-6,3.3-11.2c1-5.1,1.5-8.6,1.5-10.4
		c0-6.7-1.3-10.1-3.9-10.1c-2.6,0-6.2,2-10.8,5.9c-4.6,3.9-7.4,6.6-8.3,8c-0.9,1.4-1.9,11.1-3.1,28.9c-1.2,17.8-1.7,30.6-1.7,38.2
		c0,7.6,0.6,12.1,1.9,13.3c3.5,2.8,8.8,4.3,15.7,4.3c8.5,0,18.8-11.8,30.8-35.2c1.1,11.7,4.2,20.8,9.5,27.5
		c3.9,5.2,8.9,7.7,14.9,7.7c10.3,0,19-4.4,26.1-13.3c7.1-8.9,12.3-19.8,15.7-32.8c10,0,18.9-2.6,26.5-7.7
		c-0.8,5.1-1.2,10.7-1.2,16.7c0,9.6,2.9,18.2,8.8,25.7c5.9,7.5,13.8,11.3,23.7,11.3c17.2,0,31.7-9.5,43.4-28.5
		c10.8-17.8,16.2-31.1,16.2-40C624.4,155,623.9,154.3,622.9,154.3z M557.6,150.4c4.3-8.6,9.5-12.9,15.7-12.9c5.1,0,7.7,4,7.7,12
		c0,8-2.4,14.5-7.3,19.4c-4.9,5-12.6,8.3-23,10.1C551,168.6,553.3,159,557.6,150.4z M502.4,162c-5.3-5.3-8-10.9-8-16.8
		c0-5.9,0.7-8.8,2.1-8.8c4.3,0,6.4,6.4,6.4,19.2C503,157.8,502.8,159.9,502.4,162z"/>
</g>
<g id="XMLID_3688_">
	<path id="XMLID_3711_" class="st0" d="M293.2,285.1c-2.7-1.4-4.7-3.5-6.2-6.1c-1.5-2.6-2.2-5.7-2.2-9.1c0-3.5,0.7-6.5,2.2-9.1
		c1.5-2.6,3.6-4.7,6.2-6.1c2.7-1.4,5.7-2.1,9.1-2.1c4.6,0,8.4,1.2,11.5,3.5v4.7c-2.8-2.4-6.4-3.7-11-3.7c-2.6,0-4.8,0.5-6.8,1.6
		c-2,1-3.5,2.5-4.6,4.5c-1.1,2-1.7,4.2-1.7,6.8c0,2.6,0.6,4.9,1.7,6.9c1.1,2,2.7,3.5,4.7,4.5c2,1,4.2,1.6,6.8,1.6
		c2.3,0,4.5-0.3,6.3-0.9c1.9-0.6,3.6-1.6,5.2-3v4.7c-2.9,2.4-6.8,3.6-11.9,3.6C298.9,287.3,295.9,286.6,293.2,285.1z"/>
	<path id="XMLID_3708_" class="st0" d="M325.9,285.1c-2.7-1.4-4.8-3.5-6.3-6.1c-1.5-2.6-2.3-5.6-2.3-9c0-3.4,0.8-6.4,2.3-9
		c1.5-2.6,3.6-4.7,6.3-6.1c2.7-1.5,5.6-2.2,8.9-2.2c3.3,0,6.3,0.7,9,2.2c2.7,1.5,4.8,3.5,6.3,6.1c1.5,2.6,2.3,5.6,2.3,9
		c0,3.4-0.8,6.4-2.3,9c-1.5,2.6-3.6,4.7-6.3,6.1c-2.7,1.4-5.6,2.2-9,2.2C331.6,287.3,328.6,286.6,325.9,285.1z M341.3,281.3
		c1.9-1.1,3.4-2.6,4.5-4.5c1.1-2,1.7-4.2,1.7-6.8c0-2.6-0.5-4.8-1.6-6.8c-1.1-2-2.6-3.5-4.5-4.5c-1.9-1.1-4-1.6-6.4-1.6
		c-2.4,0-4.5,0.5-6.5,1.6c-1.9,1-3.4,2.6-4.6,4.5c-1.1,2-1.7,4.2-1.7,6.8c0,2.6,0.6,4.9,1.7,6.8c1.1,2,2.6,3.5,4.5,4.5
		c1.9,1.1,4.1,1.6,6.4,1.6S339.4,282.4,341.3,281.3z"/>
	<path id="XMLID_3706_" class="st0" d="M357.6,253.3h4.9v29.2h16.9v4h-21.7V253.3z"/>
	<path id="XMLID_3704_" class="st0" d="M382.9,253.3h21.9v4.1h-17.1v10.5h12.8v4h-12.8v10.6h17.1v4h-21.9V253.3z"/>
	<path id="XMLID_3702_" class="st0" d="M416.7,285.1c-2.7-1.4-4.7-3.5-6.2-6.1s-2.2-5.7-2.2-9.1c0-3.5,0.7-6.5,2.2-9.1
		c1.5-2.6,3.6-4.7,6.2-6.1c2.7-1.4,5.7-2.1,9.1-2.1c4.6,0,8.4,1.2,11.5,3.5v4.7c-2.8-2.4-6.4-3.7-11-3.7c-2.6,0-4.8,0.5-6.8,1.6
		c-2,1-3.5,2.5-4.6,4.5c-1.1,2-1.7,4.2-1.7,6.8c0,2.6,0.6,4.9,1.7,6.9c1.1,2,2.7,3.5,4.7,4.5c2,1,4.2,1.6,6.8,1.6
		c2.3,0,4.5-0.3,6.3-0.9c1.9-0.6,3.6-1.6,5.2-3v4.7c-2.9,2.4-6.8,3.6-11.9,3.6C422.4,287.3,419.3,286.6,416.7,285.1z"/>
	<path id="XMLID_3700_" class="st0" d="M449.3,285.1c-2.7-1.4-4.7-3.5-6.2-6.1s-2.2-5.7-2.2-9.1c0-3.5,0.7-6.5,2.2-9.1
		c1.5-2.6,3.6-4.7,6.2-6.1c2.7-1.4,5.7-2.1,9.1-2.1c4.6,0,8.4,1.2,11.5,3.5v4.7c-2.8-2.4-6.4-3.7-11-3.7c-2.6,0-4.8,0.5-6.8,1.6
		c-2,1-3.5,2.5-4.6,4.5c-1.1,2-1.7,4.2-1.7,6.8c0,2.6,0.6,4.9,1.7,6.9c1.1,2,2.7,3.5,4.7,4.5c2,1,4.2,1.6,6.8,1.6
		c2.3,0,4.5-0.3,6.3-0.9c1.9-0.6,3.6-1.6,5.2-3v4.7c-2.9,2.4-6.8,3.6-11.9,3.6C455,287.3,451.9,286.6,449.3,285.1z"/>
	<path id="XMLID_3698_" class="st0" d="M475.6,253.3h4.9v33.3h-4.9V253.3z"/>
	<path id="XMLID_3695_" class="st0" d="M494.3,285.1c-2.7-1.4-4.8-3.5-6.3-6.1c-1.5-2.6-2.3-5.6-2.3-9c0-3.4,0.8-6.4,2.3-9
		c1.5-2.6,3.6-4.7,6.3-6.1c2.7-1.5,5.6-2.2,8.9-2.2c3.3,0,6.3,0.7,9,2.2c2.7,1.5,4.8,3.5,6.3,6.1c1.5,2.6,2.3,5.6,2.3,9
		c0,3.4-0.8,6.4-2.3,9c-1.5,2.6-3.6,4.7-6.3,6.1c-2.7,1.4-5.6,2.2-9,2.2C499.9,287.3,496.9,286.6,494.3,285.1z M509.6,281.3
		c1.9-1.1,3.4-2.6,4.5-4.5c1.1-2,1.7-4.2,1.7-6.8c0-2.6-0.5-4.8-1.6-6.8c-1.1-2-2.6-3.5-4.5-4.5c-1.9-1.1-4-1.6-6.4-1.6
		c-2.4,0-4.5,0.5-6.5,1.6c-1.9,1-3.4,2.6-4.6,4.5c-1.1,2-1.7,4.2-1.7,6.8c0,2.6,0.6,4.9,1.7,6.8c1.1,2,2.6,3.5,4.5,4.5
		c1.9,1.1,4.1,1.6,6.4,1.6S507.7,282.4,509.6,281.3z"/>
	<path id="XMLID_3693_" class="st0" d="M526,253.3h4.6l16.9,25.1v-25.1h4.9v33.3h-4.7l-16.9-25.1v25.1H526V253.3z"/>
	<path id="XMLID_3691_" class="st0" d="M558.6,253.3h21.9v4.1h-17.1v10.5h12.8v4h-12.8v10.6h17.1v4h-21.9V253.3z"/>
	<path id="XMLID_3689_" class="st0" d="M589.2,286.8c-1.9-0.3-3.4-0.8-4.5-1.4V281c3,1.4,6.3,2.1,9.9,2.1c5,0,7.4-1.7,7.4-5
		c0-1.1-0.3-2.1-0.8-2.8c-0.5-0.7-1.3-1.3-2.3-1.8c-1-0.5-2.7-1.2-5-2.2c-3.1-1.3-5.4-2.7-6.8-4.2c-1.4-1.5-2.1-3.4-2.1-5.8
		c0-1.7,0.5-3.3,1.4-4.6c1-1.3,2.3-2.4,4-3.1c1.7-0.7,3.7-1.1,5.9-1.1c1.8,0,3.4,0.1,4.9,0.4c1.5,0.3,2.9,0.7,4.3,1.4v4.2
		c-2.8-1.2-5.6-1.9-8.4-1.9c-2.3,0-4,0.4-5.2,1.2c-1.2,0.8-1.8,2-1.8,3.5c0,1,0.3,1.9,0.8,2.6c0.5,0.7,1.3,1.3,2.3,1.9
		c1,0.6,2.6,1.2,4.6,2.1c2.3,0.9,4,1.8,5.3,2.6c1.3,0.8,2.3,1.8,3,3c0.7,1.2,1,2.7,1,4.5c0,2.9-1,5.1-3.1,6.7
		c-2.1,1.6-5.1,2.4-9.1,2.4C592.9,287.3,591,287.1,589.2,286.8z"/>
</g>
<path id="XMLID_14675_" class="st1" d="M225.8,124.4l14.1-10.1c-12.7-5.8-23.2-11.7-40-27.5c-0.4-0.3-0.7-0.7-1.1-1
	c-0.1-0.1-0.1-0.1-0.2-0.2l0,0c-18.5-16.6-43-26.8-69.8-26.8c-57.7,0-104.4,46.8-104.4,104.4s46.8,104.4,104.4,104.4
	S233.3,221,233.3,163.3C233.3,149.6,230.6,136.5,225.8,124.4L225.8,124.4z M130.7,248c-46.7,0-84.7-38-84.7-84.7
	c0-46.7,38-84.7,84.7-84.7s84.7,38,84.7,84.7C215.4,210,177.4,248,130.7,248z"/>
<path id="XMLID_14672_" class="st2" d="M130.7,80.5c-45.7,0-82.8,37.1-82.8,82.8s37.1,82.8,82.8,82.8s82.8-37.1,82.8-82.8
	S176.4,80.5,130.7,80.5z M130.7,233c-38.4,0-69.6-31.2-69.6-69.6c0-38.4,31.2-69.6,69.6-69.6s69.6,31.2,69.6,69.6
	C200.4,201.7,169.1,233,130.7,233z"/>
<path id="XMLID_14669_" class="st3" d="M130.7,94.6c-37.9,0-68.7,30.8-68.7,68.7c0,37.9,30.8,68.7,68.7,68.7s68.7-30.8,68.7-68.7
	C199.4,125.5,168.6,94.6,130.7,94.6z M130.7,227.6c-35.5,0-64.3-28.8-64.3-64.3S95.3,99,130.7,99c35.5,0,64.3,28.8,64.3,64.3
	S166.2,227.6,130.7,227.6z"/>
<path id="XMLID_14666_" class="st2" d="M130.7,100c-34.9,0-63.4,28.4-63.4,63.4s28.4,63.4,63.4,63.4s63.4-28.4,63.4-63.4
	S165.7,100,130.7,100z M130.7,204.3c-22.6,0-40.9-18.4-40.9-40.9c0-22.6,18.4-40.9,40.9-40.9c22.6,0,40.9,18.4,40.9,40.9
	C171.7,185.9,153.3,204.3,130.7,204.3z"/>
<path id="XMLID_14665_" class="st4" d="M130.7,124.3c-21.5,0-39.1,17.5-39.1,39.1c0,21.5,17.5,39.1,39.1,39.1
	c21.5,0,39.1-17.5,39.1-39.1C169.8,141.8,152.3,124.3,130.7,124.3z"/>
</svg>
